<?xml version="1.0" encoding="UTF-8" standalone="no"?>
<svg width="20px" height="20px" viewBox="0 0 20 20" version="1.1" xmlns="http://www.w3.org/2000/svg" xmlns:xlink="http://www.w3.org/1999/xlink">
    <!-- Generator: Sketch 44.1 (41455) - http://www.bohemiancoding.com/sketch -->
    <title>Facebook-color</title>
    <desc>Created with Sketch.</desc>
    <defs></defs>
    <g id="Page-1" stroke="none" stroke-width="1" fill="none" fill-rule="evenodd">
        <g id="04-AccountFirst" transform="translate(-340.000000, -311.000000)" fill="#4460A0">
            <path d="M350.491886,330.642857 L341.084135,330.642857 C340.485208,330.642857 340,330.157348 340,329.558654 L340,312.084127 C340,311.485281 340.485285,311 341.084135,311 L358.558798,311 C359.157496,311 359.642857,311.485281 359.642857,312.084127 L359.642857,329.558654 C359.642857,330.157424 359.15742,330.642857 358.558798,330.642857 L353.553287,330.642857 L353.553287,323.03606 L356.106538,323.03606 L356.488851,320.071557 L353.553287,320.071557 L353.553287,318.178908 C353.553287,317.320616 353.791623,316.735718 355.022403,316.735718 L356.592203,316.735032 L356.592203,314.083556 C356.320712,314.047429 355.388862,313.966714 354.304727,313.966714 C352.041413,313.966714 350.491886,315.348244 350.491886,317.885316 L350.491886,320.071557 L347.932081,320.071557 L347.932081,323.03606 L350.491886,323.03606 L350.491886,330.642857 L350.491886,330.642857 Z" id="Facebook"></path>
        </g>
    </g>
</svg>