<?xml version="1.0" encoding="UTF-8" standalone="no"?>
<svg width="19px" height="16px" viewBox="0 0 19 16" version="1.1" xmlns="http://www.w3.org/2000/svg" xmlns:xlink="http://www.w3.org/1999/xlink">
    <!-- Generator: Sketch 44.1 (41455) - http://www.bohemiancoding.com/sketch -->
    <title>Twitter-color</title>
    <desc>Created with Sketch.</desc>
    <defs></defs>
    <g id="Page-1" stroke="none" stroke-width="1" fill="none" fill-rule="evenodd">
        <g id="04-AccountFirst" transform="translate(-667.000000, -313.000000)" fill="#00AAEC">
            <path d="M685.857143,314.86029 C685.164264,315.175824 684.418258,315.389207 683.635726,315.484548 C684.43486,314.994222 685.048047,314.216736 685.336931,313.290564 C684.58871,313.74457 683.761905,314.074859 682.878651,314.251922 C682.174704,313.481246 681.168591,313 680.055115,313 C677.920031,313 676.187835,314.776299 676.187835,316.966878 C676.187835,317.277872 676.22104,317.579786 676.28745,317.87035 C673.072095,317.704638 670.221996,316.126967 668.312706,313.72414 C667.979549,314.312078 667.789173,314.994222 667.789173,315.720631 C667.789173,317.09627 668.47209,318.310736 669.510301,319.022391 C668.877192,319.003095 668.279501,318.822628 667.757075,318.527524 L667.757075,318.57633 C667.757075,320.499046 669.090811,322.102822 670.861746,322.466027 C670.537444,322.559098 670.195432,322.605634 669.842352,322.605634 C669.593314,322.605634 669.34981,322.581798 669.114054,322.535263 C669.606596,324.110664 671.034412,325.258164 672.72787,325.28881 C671.404095,326.353454 669.734989,326.987928 667.9231,326.987928 C667.610973,326.987928 667.302166,326.969767 667,326.933447 C668.712273,328.057112 670.746635,328.714286 672.93042,328.714286 C680.047367,328.714286 683.937891,322.67033 683.937891,317.427694 C683.937891,317.255172 683.934571,317.08265 683.92793,316.913532 C684.683898,316.35397 685.340251,315.655936 685.857143,314.86029" id="Twitter"></path>
        </g>
    </g>
</svg>